# xmcd
#
# Track frame offsets: 
#        150
#        13764
#        26252
#        38784
#        49875
#        62857
#        77322
#        87528
#        98923
#        112513
#        124111
#        136239
#        149173
#        162586
#        176842
#        187789
#        199181
#        209739
#        222230
#        234651
#        248005
#        257914
#        270501
#        282994
#
# Disc length: 3906 seconds
#
# Revision: 2
# Processed by: cddbd v1.5.2PL0 Copyright (c) Steve Scherf et al.
# Submitted via: ExactAudioCopy v0.99pb5
#
DISCID=600f4018
DTITLE=Various Artist - Mellow Cats 'N' Kittens: Hot R&B and Cool Blues 1946-
DTITLE=52
DYEAR=2004
DGENRE=R&B
TTITLE0=Little Willie Littlefield - Hello Kats
TTITLE1=Bubber Cyphers and His Orchestra - Walkin' Boogie
TTITLE2=Three Bits of Rhythm - Shadrack
TTITLE3=Butch Stone and His Orchestra - I Got News For You
TTITLE4=Wild Bill Moore (vocal:  Scatman) - Rock 'N' Roll
TTITLE5=Three Bits of Rhythm - Root Beer Sizzle Sazzle Sizzle
TTITLE6=Jake Porter - Jake's Boogie in D Flat
TTITLE7=Peter Rabbit Trio - Hootie Blues
TTITLE8=Jimmy "T-99" Nelson - Bad Habit Blues
TTITLE9=Helen Humes - Hey Hey Hey
TTITLE10=Dick Lewis (vocal:  Marvin Phillips) - Good, Good Wine
TTITLE11=Gene Phillips - Women, Women, Women
TTITLE12=Jimmy Witherspoon with Buddy Floyd Orchestra - Don't Ever Mov
TTITLE12=e A Woman Into Your House
TTITLE13=Tiny Webb - What's the Use Baby
TTITLE14=Butch Stone and His Orchestra - Ooh, Look A There Ain't She Pre
TTITLE14=tty
TTITLE15=Bardu Ali - Boogie Rebob
TTITLE16=Peter Rabbit Trio - They Raided The Joint
TTITLE17=Effie Smith - I Live The Life I Love
TTITLE18=Jake Porter - Safronia
TTITLE19=The Robins - That's What The Good Book Says
TTITLE20=Scatman - Exactly Like You
TTITLE21=Butch Stone and His Orchestra - Baby I Need You
TTITLE22=Herb Fisher Trio - People Who Have Money Aren't Funny
TTITLE23=Bardu Ali - That Gal Safronia
EXTD=
EXTT0=
EXTT1=
EXTT2=
EXTT3=
EXTT4=
EXTT5=
EXTT6=
EXTT7=
EXTT8=
EXTT9=
EXTT10=
EXTT11=
EXTT12=
EXTT13=
EXTT14=
EXTT15=
EXTT16=
EXTT17=
EXTT18=
EXTT19=
EXTT20=
EXTT21=
EXTT22=
EXTT23=
PLAYORDER=
